<?xml version="1.0" encoding="utf-8"?>
<!-- Generator: Adobe Illustrator 15.0.0, SVG Export Plug-In  -->
<!DOCTYPE svg PUBLIC "-//W3C//DTD SVG 1.1//EN" "http://www.w3.org/Graphics/SVG/1.1/DTD/svg11.dtd" [
	<!ENTITY ns_flows "http://ns.adobe.com/Flows/1.0/">
]>
<svg version="1.1"
	 xmlns="http://www.w3.org/2000/svg" xmlns:xlink="http://www.w3.org/1999/xlink" xmlns:a="http://ns.adobe.com/AdobeSVGViewerExtensions/3.0/"
	 x="0px" y="0px" width="879px" height="1000px" viewBox="-101.968 -1.25 879 1000"
	 overflow="visible" enable-background="new -101.968 -1.25 879 1000" xml:space="preserve">
<defs>
</defs>
<path fill="#212D5B" d="M706.417,911.479l-74.133-359.839l-30.316-11.561l-34.264,13.161l-8.905-54.934l-62.951-24.656
	l-21.151-206.409l32.661-31.962l-132.142-86.115L366.21,0l-12.157,135.403l-6.609-4.319v0.134L243.927,265.727l24.394,17.892
	L255.08,390.076l-20.177-3.142l-14.731,22.072l-17.206,104.941l-71.538-14.776v-0.02l-0.031,0.02l-0.099-0.02l-0.05,0.14
	l-24.383,22.827l-11.57,52.514l-13.787,11.411L1.561,877.017L0,880.339l42.294,41.657l0.905,1.013l108.386-10.585l-4.045,21.998
	l53.03,23.05l12.305-3.42l-0.546,0.129l2.991-0.814l-0.825,9.841l85.654,34.293l0.079-0.04l173.692-27.822v-9.045l23.658,3.329
	l-0.755-1.53l0.02,0.617l-0.1-0.736l0.08,0.129l92.959-15.795l-2.484-19.551l1.688,0.745l27.672,7.414l38.289-7.414l-1.144-6.57
	L706.417,911.479z M39.452,912.025l-33.24-32.762l0.189-0.428l0.139-0.418l79.511-289.402l12.515-10.378l1.392-1.134l0.377-1.739
	l11.232-50.941l11.283-10.655L39.452,912.025z M333.666,502.194l-1.968-0.581l-6.173-1.811l-0.397,6.452l-29.681,483.78
	l-75.416-30.208l22.326-210.4l33.338-108.465l0.208-0.588l0.019-0.596l3.331-50.844l0.219-3.318l-2.902-1.561l-28.688-15.586
	l-4.98-2.724l-1.64-1.402l-0.06,0.467l-0.905-0.505v8.387l-0.149,1.194l-43.975,376.001L153.365,931.3l64.172-350.266l16.491-10.06
	l1.491-0.705l2.524-1.234l0.338-2.781l35.079-281.995l0.378-3.026l-2.447-1.789l-20.127-14.775l92.58-120.29l3.332,28.077
	L333.666,502.194z M453.81,562.862l-17.384-6.381l-1.699-52.363l24.531,6.489l2.396,41.222l-8.209,3.878L453.81,562.862z
	 M436.426,489.407l-1.699-45.963l24.531,10.577l3.26,45.132L436.426,489.407z M451.933,330.263l-22.047-11.397v-33.731
	l21.202,11.665L451.933,330.263z M385.85,212.319l22.066,11.4l0.838,36.873l-22.904-12.321V212.319z M386.707,262.247l23.537,12.416
	l0.836,34.292l-25.238-12.147L386.707,262.247z M411.08,322.846l1.609,36.123l-25.982-12.312l-0.856-36.037L411.08,322.846z
	 M414.369,417.992l-27.662-11.401v-47.613l25.982,12.321L414.369,417.992z M416.833,551.641l-5.754-1.629l-0.02,0.039l0.833-18.877
	l-25.187-7.555v-37.643l30.127,12.401V551.641z M386.707,469.582l0.617-47.549l27.881,11.516l1.629,47.534L386.707,469.582z
	 M427.43,234.455l20.338,10.571l1.698,36.962l-21.2-10.656L427.43,234.455z M429.886,332.757l22.763,11.565l2.524,35.127
	l-23.639-10.656L429.886,332.757z M432.391,382.024l23.538,11.401l3.329,44.185L433.9,427.067L432.391,382.024z M436.426,632.741
	l-1.699-53.278l20.347,8.627l2.624,51.829L436.426,632.741z M478.76,956.041l-19.979-397.063l7.524-3.58l24.532,402.352
	L478.76,956.041z M616.837,929.918l-24.931-6.699l-5.246-33.092l-0.875-5.396l-5.3,1.135l-6.55,1.409l-37.752-325.623l-0.417-3.6
	l-3.509-0.864l-23.37-5.616l-7.057-70.002l52.314,20.477l14.245,92.197l0.477,3.133l2.98,1.003l21.61,7.265l55.504,318.052
	L616.837,929.918z"/>
<path fill="#212D5B" d="M254.017,493.269l-1.818,1.272l-0.31,2.206l-1.709,11.476l-1.75,11.909l9.811-6.89l67.652-47.513
	l2.218-1.551v-2.713v-10.562v-9.975l-8.121,5.741L254.017,493.269z M322.951,461.465l-67.672,47.542l1.691-11.515l65.981-46.599
	V461.465z"/>
<path fill="#212D5B" d="M330.635,347.94l1.421-1.362l0.16-1.969l0.875-11.327l1.033-13.324l-9.701,9.164l-57.156,54.02l-1.352,1.262
	l-0.219,1.844l-1.709,13.156l-1.878,14.571l10.555-10.168L330.635,347.94z M270.766,386.9l57.175-54.019l-0.875,11.337
	l-57.99,55.837L270.766,386.9z"/>
<path fill="#212D5B" d="M335.555,251.298l1.562-1.525v-2.202v-12.226v-12.311l-8.759,8.618l-48.128,47.358l-1.282,1.268
	l-0.229,1.819l-1.571,13.23l-1.73,14.482l10.428-10.144L335.555,251.298z M283.827,282.699l48.14-47.354v12.226l-49.7,48.368
	L283.827,282.699z"/>
<path fill="#212D5B" d="M333.129,299.612l1.422-1.392l0.108-1.994l0.736-13.23l0.786-13.911l-9.633,10.014l-52.899,55.018
	l-1.025,1.068l-0.308,1.466l-2.575,12.311l-3.488,16.783L278.4,353.73L333.129,299.612z M277.356,337.702l52.901-55.013
	l-0.745,13.235l-54.72,54.098L277.356,337.702z"/>
<path fill="#212D5B" d="M261.025,435.353l-1.62,1.352l-0.21,2.092l-1.062,9.925l-1.322,12.336l9.641-7.729l61.411-49.217
	l1.768-1.417l0.159-2.256l0.697-9.91v-0.07l0.019-0.104l0.08-1.471l0.526-11.659l-8.956,7.444L261.025,435.353z M325.376,390.146
	l-0.716,9.9l-61.4,49.218l1.064-9.94l61.13-50.678L325.376,390.146z"/>
</svg>
